<?xml version="1.0" standalone="no"?>
<!DOCTYPE svg PUBLIC "-//W3C//DTD SVG 20010904//EN"
 "http://www.w3.org/TR/2001/REC-SVG-20010904/DTD/svg10.dtd">
<svg version="1.0" xmlns="http://www.w3.org/2000/svg"
 width="300.000000pt" height="300.000000pt" viewBox="0 0 300.000000 300.000000"
 preserveAspectRatio="xMidYMid meet">
<metadata>
Created by potrace 1.10, written by Peter Selinger 2001-2011
</metadata>
<g transform="translate(0.000000,300.000000) scale(0.100000,-0.100000)"
fill="#f7c200" stroke="none">
<path d="M2699 2913 c-30 -22 -47 -32 -179 -103 -58 -31 -168 -93 -245 -137
-77 -44 -164 -92 -193 -107 -29 -15 -130 -80 -225 -145 -215 -147 -376 -244
-440 -265 -16 -5 -12 -13 28 -58 50 -57 132 -214 147 -281 19 -83 21 -268 4
-334 -9 -33 -16 -66 -16 -72 0 -22 102 -12 145 14 l40 25 -75 -2 c-70 -3 -75
-2 -71 17 10 53 12 308 2 318 -6 6 -11 23 -11 38 0 46 -54 163 -116 252 -19
26 -34 51 -34 56 0 8 92 66 130 82 9 4 108 69 220 144 273 183 362 233 255
143 -96 -81 -270 -265 -303 -320 -39 -66 -103 -244 -107 -299 -4 -52 21 -165
42 -194 29 -39 85 -65 139 -65 73 1 129 16 233 66 135 63 145 59 89 -36 -24
-40 -53 -69 -108 -107 -41 -29 -78 -52 -82 -53 -4 0 -41 -25 -83 -55 -43 -30
-81 -52 -86 -49 -5 3 -9 15 -10 27 0 15 -2 17 -6 7 -13 -35 -66 -89 -132 -135
-41 -30 -69 -56 -68 -65 5 -26 30 -15 121 51 165 119 311 219 346 236 52 26
121 100 158 170 32 61 33 78 7 110 -1 2 -37 -16 -81 -39 -119 -62 -192 -88
-266 -95 -116 -10 -158 24 -177 145 -9 57 -8 81 3 124 30 111 77 222 120 281
67 95 274 286 406 376 144 99 271 181 279 181 5 0 14 -14 20 -31 9 -27 13 -30
26 -19 8 7 15 18 15 25 0 15 70 80 139 131 48 34 59 53 35 61 -6 2 -22 -4 -35
-14z"/>
<path d="M1364 2637 c-39 -15 -74 -43 -104 -84 -35 -48 -33 -134 5 -191 37
-57 118 -97 176 -88 57 9 92 29 127 73 60 77 55 166 -12 236 -59 62 -124 80
-192 54z m144 -50 c35 -24 72 -89 72 -128 -1 -42 -36 -105 -72 -127 -42 -26
-115 -29 -157 -7 -16 8 -40 28 -55 45 -22 26 -26 41 -26 91 0 57 2 61 44 103
60 61 125 68 194 23z"/>
<path d="M300 2536 c0 -2 16 -51 35 -109 20 -59 38 -127 42 -152 4 -35 10 -45
22 -43 11 3 15 12 13 30 -2 19 5 32 25 48 27 21 34 22 154 16 148 -8 208 -22
286 -67 202 -113 340 -275 368 -431 22 -123 14 -337 -17 -483 -33 -155 -102
-334 -158 -410 -96 -130 -275 -259 -445 -320 -27 -10 -56 -23 -62 -28 -15 -11
-16 -87 -3 -177 6 -36 19 -132 31 -215 11 -82 25 -154 30 -159 5 -6 9 -8 9 -5
0 103 13 235 30 309 42 180 46 192 100 250 28 30 61 66 73 79 12 13 39 34 59
48 45 28 53 34 138 107 36 31 89 75 118 98 161 128 302 286 356 398 52 106 70
206 63 354 -7 165 -46 273 -145 398 -51 65 -100 101 -245 176 -96 50 -129 61
-261 87 -44 9 -82 18 -86 20 -4 3 -61 7 -126 10 -157 8 -241 22 -275 45 -15
11 -30 20 -34 20 -11 0 -32 28 -55 73 -11 20 -25 37 -30 37 -6 0 -10 -2 -10
-4z m125 -158 c31 -14 31 -21 1 -42 -24 -15 -25 -14 -35 16 -6 17 -11 33 -11
34 0 7 19 4 45 -8z m535 -82 c36 -8 85 -21 109 -30 55 -20 235 -116 239 -127
2 -5 10 -9 17 -9 36 0 140 -144 178 -247 92 -247 50 -481 -125 -698 -89 -110
-213 -225 -243 -225 -3 0 2 17 11 37 28 65 94 261 105 311 18 90 39 267 39
342 0 93 -23 226 -49 284 -45 103 -151 220 -278 306 -118 80 -118 81 -3 56z
m-221 -1683 c-8 -10 -20 -24 -27 -31 -22 -24 -42 -71 -52 -122 -17 -89 -41
-163 -51 -153 -5 5 -14 60 -21 122 -13 132 -12 133 87 174 73 31 81 32 64 10z"/>
</g>
</svg>
