<svg id="svg" version="1.1" width="2000" height="2000" xmlns="http://www.w3.org/2000/svg" xmlns:xlink="http://www.w3.org/1999/xlink" style="display: block;"><g id="svgg"><path id="path0" d="M38.400 72.640 C 38.400 72.977,39.144 73.723,39.312 73.554 C 39.373 73.494,39.192 73.196,38.911 72.893 C 38.571 72.527,38.400 72.442,38.400 72.640 M58.833 95.376 C 58.685 95.469,58.595 95.749,58.633 95.997 C 58.694 96.407,58.722 96.391,58.933 95.825 C 59.061 95.481,59.151 95.201,59.133 95.203 C 59.115 95.205,58.980 95.282,58.833 95.376 " stroke="none" fill="#000000" fill-rule="evenodd"></path><path id="path1" d="M361.802 6.420 C 361.308 6.516,360.668 6.770,360.379 6.984 C 360.091 7.197,359.541 7.431,359.157 7.502 C 358.774 7.574,358.236 7.841,357.962 8.095 C 357.689 8.349,357.185 8.701,356.844 8.877 C 356.503 9.053,356.100 9.376,355.947 9.593 C 355.782 9.829,355.250 10.079,354.635 10.211 C 353.988 10.350,353.488 10.592,353.304 10.856 C 353.129 11.105,352.577 11.387,351.954 11.544 C 351.273 11.717,350.770 11.986,350.533 12.305 C 350.325 12.586,349.964 12.800,349.699 12.800 C 349.441 12.800,348.975 13.056,348.662 13.368 C 348.350 13.681,347.634 14.090,347.071 14.277 C 346.508 14.464,345.897 14.782,345.714 14.984 C 345.531 15.186,345.003 15.412,344.541 15.486 C 344.027 15.568,343.467 15.840,343.100 16.185 C 342.770 16.496,342.230 16.837,341.900 16.941 C 341.570 17.046,341.191 17.349,341.057 17.616 C 340.923 17.882,340.608 18.149,340.357 18.208 C 340.106 18.268,339.788 18.549,339.652 18.832 C 339.430 19.292,339.246 19.363,337.967 19.489 C 336.733 19.611,336.455 19.713,335.986 20.215 C 335.685 20.537,335.254 20.800,335.027 20.800 C 334.800 20.800,334.311 21.066,333.940 21.392 C 333.570 21.717,332.887 22.068,332.424 22.172 C 331.961 22.276,331.374 22.585,331.121 22.858 C 330.868 23.131,330.368 23.419,330.009 23.498 C 329.598 23.588,329.240 23.847,329.038 24.199 C 328.783 24.642,328.536 24.778,327.838 24.856 C 327.184 24.930,326.814 25.115,326.391 25.578 C 326.078 25.920,325.633 26.200,325.401 26.200 C 324.799 26.200,323.800 26.759,323.800 27.096 C 323.800 27.261,323.522 27.434,323.144 27.505 C 322.783 27.573,322.200 27.880,321.847 28.188 C 321.494 28.496,320.859 28.803,320.436 28.871 C 320.013 28.939,319.495 29.187,319.284 29.423 C 319.073 29.659,318.509 30.021,318.031 30.227 C 317.553 30.433,317.118 30.772,317.063 30.980 C 317.004 31.207,316.716 31.407,316.340 31.482 C 315.996 31.551,315.468 31.843,315.167 32.132 C 314.799 32.484,314.272 32.712,313.565 32.823 C 312.777 32.948,312.367 33.143,311.945 33.595 C 311.630 33.932,311.174 34.200,310.915 34.200 C 310.364 34.200,308.800 35.800,308.800 36.363 C 308.800 36.568,308.573 36.839,308.296 36.965 C 308.019 37.092,307.706 37.421,307.601 37.698 C 307.493 37.981,307.251 38.200,307.045 38.200 C 306.580 38.200,306.200 38.577,306.200 39.040 C 306.200 39.346,306.023 39.400,305.031 39.400 C 303.965 39.400,303.798 39.462,303.141 40.100 C 302.659 40.568,302.231 40.800,301.850 40.800 C 301.213 40.800,300.800 41.116,300.800 41.605 C 300.800 41.850,300.494 41.975,299.550 42.115 C 298.389 42.287,298.296 42.339,298.237 42.850 C 298.177 43.367,298.114 43.400,297.187 43.400 C 296.159 43.400,295.400 43.867,295.400 44.500 C 295.400 44.680,295.215 44.800,294.937 44.800 C 294.683 44.800,294.216 45.070,293.900 45.400 C 293.507 45.810,293.131 46.000,292.713 46.001 C 291.615 46.003,290.594 46.395,290.363 46.902 C 290.237 47.179,289.904 47.433,289.572 47.506 C 289.197 47.588,288.959 47.792,288.883 48.097 C 288.759 48.591,288.295 48.793,287.274 48.797 C 286.606 48.800,286.288 49.059,286.169 49.698 C 286.129 49.916,285.916 50.129,285.698 50.169 C 285.131 50.274,284.800 50.590,284.800 51.024 C 284.800 51.357,284.634 51.400,283.350 51.403 C 281.380 51.406,281.004 51.531,280.865 52.226 C 280.767 52.717,280.656 52.800,280.100 52.800 C 279.636 52.800,279.231 53.000,278.686 53.500 C 278.266 53.885,277.777 54.200,277.601 54.200 C 277.175 54.200,276.800 54.594,276.800 55.040 C 276.800 55.334,276.633 55.400,275.887 55.400 C 274.799 55.400,274.200 55.678,274.200 56.182 C 274.200 56.574,273.508 56.800,272.313 56.800 C 271.842 56.800,271.564 56.951,271.250 57.375 C 270.968 57.756,270.566 57.999,270.062 58.093 C 269.148 58.264,268.800 58.521,268.800 59.024 C 268.800 59.340,268.646 59.400,267.838 59.400 C 266.791 59.400,266.272 59.678,266.165 60.298 C 266.127 60.516,265.916 60.729,265.698 60.769 C 265.141 60.873,264.800 61.188,264.800 61.599 C 264.800 61.869,264.564 61.980,263.755 62.087 C 262.592 62.241,262.200 62.474,262.200 63.009 C 262.200 63.243,261.997 63.413,261.615 63.497 C 261.205 63.587,260.969 63.801,260.826 64.213 C 260.642 64.739,260.531 64.800,259.760 64.803 C 258.728 64.807,258.490 64.938,258.217 65.654 C 258.096 65.973,257.858 66.200,257.645 66.200 C 257.188 66.200,256.800 66.575,256.800 67.018 C 256.800 67.214,256.586 67.410,256.293 67.484 C 256.014 67.554,255.688 67.826,255.569 68.089 C 255.336 68.600,254.874 68.793,253.874 68.797 C 253.205 68.800,252.887 69.060,252.769 69.700 C 252.725 69.940,252.507 70.127,252.224 70.167 C 251.919 70.210,251.674 70.440,251.532 70.817 C 251.352 71.295,251.196 71.400,250.669 71.400 C 249.699 71.400,249.025 71.730,248.889 72.271 C 248.807 72.598,248.584 72.793,248.208 72.868 C 247.833 72.943,247.608 73.139,247.527 73.462 C 247.425 73.870,247.249 73.962,246.382 74.065 C 245.252 74.199,244.800 74.467,244.800 75.003 C 244.800 75.215,244.597 75.408,244.293 75.484 C 244.014 75.554,243.688 75.826,243.569 76.089 C 243.336 76.600,242.874 76.793,241.874 76.797 C 241.205 76.800,240.887 77.060,240.769 77.700 C 240.725 77.940,240.507 78.127,240.224 78.167 C 239.919 78.210,239.674 78.440,239.532 78.817 C 239.352 79.295,239.196 79.400,238.669 79.400 C 237.699 79.400,237.025 79.730,236.889 80.271 C 236.807 80.598,236.584 80.793,236.208 80.868 C 235.822 80.946,235.609 81.139,235.520 81.490 C 235.436 81.825,235.254 82.000,234.990 82.000 C 234.304 82.000,233.169 82.575,233.064 82.976 C 233.005 83.202,232.721 83.406,232.366 83.477 C 231.938 83.562,231.702 83.769,231.539 84.198 C 231.414 84.529,231.170 84.800,230.996 84.800 C 230.584 84.800,230.200 85.193,230.200 85.614 C 230.200 85.875,229.932 85.979,228.986 86.086 C 227.872 86.212,227.754 86.272,227.566 86.812 C 227.434 87.190,227.222 87.400,226.974 87.400 C 226.761 87.400,226.326 87.667,226.007 87.993 C 225.688 88.319,225.174 88.642,224.864 88.711 C 223.738 88.963,223.638 89.022,223.515 89.513 C 223.428 89.857,223.211 90.048,222.817 90.127 C 222.502 90.190,222.052 90.502,221.816 90.821 C 221.511 91.234,221.217 91.400,220.794 91.400 C 220.225 91.400,219.541 91.877,219.368 92.395 C 219.324 92.529,218.840 92.687,218.293 92.746 C 217.180 92.865,216.800 93.083,216.800 93.603 C 216.800 93.822,216.591 94.008,216.250 94.093 C 215.947 94.167,215.458 94.492,215.161 94.814 C 214.865 95.136,214.460 95.401,214.261 95.403 C 213.468 95.409,213.016 95.665,212.823 96.220 C 212.642 96.738,212.529 96.800,211.760 96.803 C 210.728 96.807,210.490 96.938,210.217 97.654 C 210.096 97.973,209.858 98.200,209.645 98.200 C 209.180 98.200,208.800 98.577,208.800 99.040 C 208.800 99.334,208.633 99.400,207.887 99.400 C 206.791 99.400,206.200 99.678,206.200 100.195 C 206.200 100.498,206.005 100.602,205.250 100.705 C 203.816 100.899,203.650 100.974,203.522 101.485 C 203.434 101.834,203.214 101.990,202.668 102.093 C 202.256 102.170,201.704 102.474,201.416 102.782 C 201.132 103.085,200.649 103.395,200.343 103.472 C 200.037 103.548,199.688 103.826,199.569 104.089 C 199.337 104.598,198.874 104.793,197.890 104.797 C 197.200 104.800,196.800 105.110,196.800 105.640 C 196.800 105.849,196.653 106.000,196.450 106.001 C 195.585 106.004,194.571 106.445,194.358 106.912 C 194.180 107.304,193.987 107.400,193.381 107.400 C 192.290 107.400,191.670 107.695,191.522 108.285 C 191.420 108.691,191.269 108.800,190.809 108.800 C 189.960 108.800,189.176 109.150,189.064 109.579 C 188.980 109.900,188.716 109.965,187.201 110.037 C 185.141 110.136,184.800 110.332,184.800 111.424 C 184.800 112.315,184.747 112.347,184.200 111.800 C 183.908 111.508,183.533 111.400,182.813 111.400 C 181.886 111.400,181.823 111.367,181.763 110.850 C 181.704 110.339,181.611 110.287,180.450 110.115 C 179.479 109.971,179.200 109.854,179.200 109.589 C 179.200 109.187,178.855 108.872,178.302 108.769 C 178.084 108.729,177.873 108.516,177.835 108.298 C 177.728 107.678,177.209 107.400,176.162 107.400 C 175.354 107.400,175.200 107.340,175.200 107.024 C 175.200 106.590,174.869 106.274,174.302 106.169 C 174.084 106.129,173.871 105.916,173.831 105.698 C 173.712 105.059,173.394 104.800,172.726 104.797 C 171.709 104.793,171.241 104.591,171.119 104.105 C 170.995 103.609,170.498 103.407,169.394 103.403 C 168.797 103.400,168.653 103.309,168.466 102.812 C 168.264 102.276,168.137 102.213,167.022 102.087 C 166.069 101.979,165.800 101.875,165.800 101.614 C 165.800 101.177,165.411 100.800,164.960 100.800 C 164.762 100.800,164.600 100.665,164.600 100.500 C 164.600 99.872,163.841 99.400,162.832 99.400 C 162.000 99.400,161.833 99.331,161.642 98.912 C 161.429 98.445,160.415 98.004,159.550 98.001 C 159.341 98.000,159.200 97.848,159.200 97.624 C 159.200 97.083,158.832 96.866,157.707 96.746 C 157.160 96.687,156.676 96.529,156.632 96.395 C 156.416 95.748,155.780 95.400,154.813 95.400 C 153.886 95.400,153.823 95.367,153.763 94.850 C 153.704 94.339,153.611 94.287,152.450 94.115 C 151.479 93.971,151.200 93.854,151.200 93.589 C 151.200 93.083,150.813 92.864,149.707 92.746 C 149.160 92.687,148.676 92.529,148.632 92.395 C 148.411 91.732,147.782 91.400,146.748 91.400 C 145.900 91.400,145.646 91.320,145.437 90.985 C 145.077 90.409,143.995 90.000,142.828 90.000 C 142.015 90.000,141.733 89.898,141.217 89.416 C 140.641 88.878,140.431 88.820,138.581 88.689 C 136.750 88.559,136.554 88.506,136.400 88.101 C 136.162 87.474,135.731 87.406,131.970 87.403 L 128.639 87.400 128.440 86.830 C 128.203 86.148,127.601 86.006,124.950 86.002 C 123.372 86.000,123.200 85.963,123.200 85.624 C 123.200 84.844,122.724 84.735,118.893 84.639 C 115.477 84.554,115.201 84.519,115.088 84.162 C 114.901 83.574,114.169 83.400,111.887 83.400 C 109.979 83.400,109.800 83.368,109.800 83.024 C 109.800 82.148,109.482 82.103,102.775 82.040 L 96.410 81.979 95.842 81.411 C 94.568 80.137,85.314 80.296,84.900 81.600 C 84.677 82.304,82.038 82.182,81.233 81.431 C 80.600 80.840,79.193 80.605,76.272 80.601 C 75.356 80.600,75.230 80.548,75.124 80.124 C 74.956 79.453,74.614 79.406,69.950 79.403 C 66.025 79.400,65.800 79.380,65.800 79.024 C 65.800 78.385,65.270 78.160,63.503 78.050 C 62.093 77.962,61.800 77.887,61.800 77.612 C 61.800 77.108,61.388 76.800,60.710 76.797 C 59.705 76.793,59.240 76.588,59.117 76.097 C 59.039 75.786,58.802 75.588,58.400 75.500 C 58.005 75.413,57.800 75.246,57.800 75.009 C 57.800 74.423,57.282 74.161,55.909 74.050 C 54.469 73.935,54.137 73.700,53.854 72.600 C 53.746 72.178,53.485 71.805,53.197 71.661 C 52.886 71.506,52.628 71.109,52.457 70.524 C 52.313 70.030,51.983 69.458,51.722 69.253 C 51.462 69.049,51.188 68.601,51.113 68.258 C 51.031 67.884,50.513 67.168,49.816 66.465 C 49.179 65.821,48.588 65.071,48.505 64.797 C 48.313 64.170,47.820 63.600,47.469 63.600 C 47.314 63.600,47.200 63.384,47.200 63.094 C 47.200 62.433,46.681 61.200,46.403 61.200 C 46.284 61.200,46.003 60.889,45.779 60.509 C 45.554 60.129,45.197 59.762,44.983 59.695 C 44.770 59.627,44.463 59.314,44.300 59.000 C 44.137 58.686,43.826 58.372,43.607 58.302 C 43.389 58.233,43.096 57.941,42.955 57.653 C 42.815 57.365,42.430 57.044,42.100 56.939 C 41.770 56.835,41.314 56.581,41.087 56.375 C 40.536 55.874,39.369 55.882,38.910 56.389 C 38.717 56.602,38.304 56.833,37.993 56.902 C 37.352 57.042,37.113 57.283,36.901 58.000 C 36.820 58.275,36.562 58.710,36.327 58.966 C 35.673 59.680,35.579 62.602,36.183 63.420 C 36.417 63.737,36.719 64.334,36.855 64.748 C 36.990 65.164,37.291 65.584,37.528 65.688 C 37.922 65.861,37.967 66.076,38.085 68.388 C 38.260 71.787,38.352 72.290,38.915 72.898 C 39.182 73.185,39.400 73.605,39.400 73.831 C 39.400 74.606,40.030 76.676,40.415 77.165 C 40.694 77.519,40.800 77.972,40.800 78.805 C 40.800 80.028,41.446 81.098,42.850 82.198 C 43.315 82.563,43.400 82.778,43.400 83.601 C 43.400 84.808,43.690 85.609,44.173 85.735 C 44.495 85.819,44.557 86.117,44.655 88.066 C 44.784 90.627,44.876 90.961,45.489 91.115 C 45.860 91.208,45.964 91.430,46.117 92.463 C 46.287 93.611,46.340 93.705,46.850 93.763 L 47.400 93.827 47.400 96.813 C 47.400 99.839,47.595 100.600,48.371 100.600 C 48.465 100.600,48.602 101.343,48.675 102.250 C 48.810 103.936,49.165 104.600,49.932 104.600 C 50.090 104.600,50.432 104.848,50.693 105.150 C 51.133 105.661,51.275 105.700,52.702 105.700 C 54.138 105.700,54.267 105.664,54.676 105.150 C 54.949 104.808,55.308 104.600,55.626 104.600 C 56.459 104.600,57.787 103.150,57.934 102.080 C 58.000 101.598,58.177 101.102,58.327 100.978 C 58.533 100.807,58.600 100.096,58.600 98.097 C 58.600 95.233,58.613 95.200,59.727 95.200 C 60.102 95.200,60.291 95.032,60.513 94.500 C 60.737 93.963,60.922 93.800,61.309 93.800 C 61.586 93.800,61.864 93.665,61.928 93.500 C 62.103 93.042,85.215 93.054,86.700 93.513 C 87.250 93.683,88.689 93.877,89.897 93.944 C 91.321 94.022,92.188 94.159,92.361 94.332 C 92.532 94.504,93.121 94.600,93.998 94.600 C 94.806 94.600,95.396 94.689,95.439 94.818 C 95.479 94.937,95.941 95.115,96.466 95.213 C 96.991 95.311,97.557 95.529,97.724 95.696 C 97.965 95.937,98.578 96.001,100.664 96.006 C 102.664 96.011,103.394 96.084,103.688 96.306 C 103.902 96.468,104.372 96.600,104.732 96.600 C 105.224 96.600,105.495 96.745,105.817 97.181 C 106.139 97.616,106.475 97.796,107.155 97.898 C 107.654 97.973,108.190 98.161,108.346 98.317 C 108.501 98.473,108.926 98.600,109.290 98.600 C 109.653 98.600,110.063 98.735,110.200 98.900 C 110.337 99.065,110.665 99.200,110.929 99.200 C 111.259 99.200,111.470 99.358,111.601 99.704 C 111.832 100.311,112.517 100.600,113.724 100.600 C 114.460 100.600,114.720 100.706,115.161 101.183 C 115.458 101.503,115.924 101.796,116.198 101.833 C 116.507 101.874,116.724 102.052,116.769 102.300 C 116.884 102.925,117.201 103.200,117.806 103.200 C 118.149 103.200,118.683 103.468,119.200 103.900 C 119.661 104.285,120.244 104.600,120.496 104.600 C 120.763 104.600,121.090 104.807,121.280 105.098 C 121.484 105.409,121.929 105.677,122.465 105.812 C 123.136 105.981,123.371 106.156,123.544 106.614 C 123.705 107.041,123.897 107.200,124.252 107.200 C 124.519 107.200,124.909 107.389,125.119 107.620 C 125.584 108.134,126.452 108.600,126.946 108.600 C 127.169 108.600,127.401 108.834,127.539 109.200 C 127.692 109.606,127.902 109.800,128.188 109.800 C 128.464 109.800,128.682 109.989,128.817 110.346 C 129.060 110.983,129.334 111.193,129.931 111.197 C 130.168 111.199,130.739 111.515,131.200 111.900 C 131.661 112.285,132.198 112.600,132.394 112.600 C 132.630 112.600,132.791 112.803,132.870 113.200 C 132.951 113.604,133.109 113.800,133.355 113.800 C 133.822 113.800,134.200 114.178,134.200 114.645 C 134.200 114.887,134.394 115.049,134.778 115.126 C 135.095 115.189,135.542 115.494,135.771 115.803 C 135.999 116.112,136.462 116.426,136.800 116.500 C 137.138 116.574,137.605 116.893,137.838 117.208 C 138.071 117.524,138.499 117.834,138.790 117.898 C 139.135 117.974,139.395 118.218,139.541 118.607 C 139.710 119.054,139.893 119.200,140.283 119.200 C 140.704 119.200,140.800 119.295,140.800 119.710 C 140.800 120.102,140.959 120.287,141.486 120.507 C 141.934 120.694,142.194 120.950,142.236 121.247 C 142.277 121.540,142.460 121.723,142.753 121.764 C 143.050 121.806,143.306 122.066,143.493 122.514 C 143.713 123.041,143.898 123.200,144.290 123.200 C 144.705 123.200,144.800 123.296,144.800 123.717 C 144.800 124.104,144.946 124.290,145.376 124.452 C 145.876 124.641,145.968 124.800,146.069 125.656 C 146.199 126.748,146.471 127.200,146.999 127.200 C 147.229 127.200,147.392 127.408,147.471 127.804 C 147.564 128.270,147.725 128.435,148.175 128.525 C 148.618 128.614,148.786 128.781,148.874 129.221 C 148.951 129.606,149.112 129.800,149.355 129.800 C 149.822 129.800,150.200 130.178,150.200 130.645 C 150.200 130.891,150.396 131.049,150.800 131.130 C 151.333 131.237,151.400 131.330,151.403 131.975 C 151.407 132.935,151.806 133.685,152.355 133.764 C 152.663 133.808,152.800 133.965,152.800 134.274 C 152.800 134.803,153.149 135.200,153.614 135.200 C 153.866 135.200,153.983 135.457,154.087 136.245 C 154.241 137.408,154.474 137.800,155.009 137.800 C 155.246 137.800,155.413 138.005,155.500 138.400 C 155.588 138.802,155.786 139.039,156.097 139.117 C 156.588 139.240,156.793 139.705,156.797 140.710 C 156.800 141.389,157.109 141.800,157.614 141.800 C 157.875 141.800,157.979 142.069,158.087 143.022 C 158.213 144.137,158.276 144.264,158.812 144.466 C 159.309 144.653,159.400 144.797,159.403 145.394 C 159.407 146.495,159.609 146.995,160.099 147.118 C 160.518 147.223,160.561 147.378,160.694 149.249 C 160.826 151.120,160.879 151.310,161.418 151.849 C 161.919 152.349,162.000 152.584,162.000 153.523 C 162.000 154.730,162.606 156.200,163.104 156.200 C 163.359 156.200,163.400 157.034,163.400 162.175 C 163.400 168.851,163.448 169.339,164.128 169.649 L 164.600 169.864 164.600 180.642 L 164.600 191.419 164.050 191.892 L 163.500 192.365 163.444 200.583 C 163.390 208.417,163.370 208.800,163.018 208.800 C 162.286 208.800,162.103 209.360,162.029 211.832 C 161.961 214.095,161.933 214.230,161.409 214.791 C 160.816 215.425,160.604 216.645,160.601 219.450 C 160.600 220.492,160.534 220.800,160.311 220.800 C 159.620 220.800,159.400 221.609,159.400 224.156 L 159.400 226.623 158.750 227.216 L 158.100 227.810 158.029 230.305 C 157.966 232.535,157.921 232.800,157.604 232.800 C 157.011 232.800,156.835 233.231,156.688 235.038 C 156.560 236.610,156.506 236.780,156.098 236.883 C 155.541 237.023,155.406 237.500,155.403 239.350 C 155.400 240.634,155.357 240.800,155.024 240.800 C 154.285 240.800,154.103 241.355,154.029 243.831 C 153.966 245.938,153.919 246.200,153.603 246.200 C 153.083 246.200,152.865 246.579,152.746 247.693 C 152.687 248.240,152.553 248.716,152.448 248.751 C 151.659 249.014,151.500 249.379,151.429 251.084 C 151.369 252.568,151.311 252.800,151.004 252.800 C 150.467 252.800,150.199 253.251,150.065 254.382 C 149.964 255.232,149.866 255.426,149.486 255.521 C 148.907 255.667,148.838 255.861,148.675 257.805 C 148.602 258.682,148.465 259.400,148.371 259.400 C 147.855 259.400,147.400 260.244,147.400 261.200 C 147.400 262.127,147.364 262.200,146.912 262.200 C 146.287 262.200,146.223 262.319,146.072 263.767 C 145.974 264.704,145.865 264.989,145.576 265.064 C 145.149 265.176,144.800 265.962,144.800 266.813 C 144.800 267.201,144.699 267.400,144.500 267.400 C 143.867 267.400,143.400 268.159,143.400 269.187 C 143.400 270.114,143.367 270.177,142.850 270.237 C 142.422 270.286,142.286 270.419,142.238 270.837 C 142.190 271.248,142.037 271.404,141.579 271.505 C 141.131 271.603,140.955 271.776,140.870 272.202 C 140.793 272.584,140.599 272.807,140.271 272.889 C 139.730 273.025,139.400 273.699,139.400 274.669 C 139.400 275.196,139.295 275.352,138.817 275.532 C 138.444 275.673,138.210 275.920,138.167 276.218 C 138.124 276.516,137.927 276.724,137.619 276.796 C 137.146 276.907,136.936 277.154,136.721 277.850 C 136.661 278.043,136.425 278.200,136.197 278.200 C 135.921 278.200,135.693 278.408,135.522 278.816 C 135.379 279.155,135.052 279.537,134.794 279.666 C 134.514 279.806,134.254 280.182,134.147 280.600 C 134.049 280.985,133.706 281.574,133.385 281.910 C 133.063 282.245,132.800 282.698,132.800 282.916 C 132.800 283.171,132.590 283.392,132.209 283.535 C 131.836 283.676,131.570 283.950,131.487 284.279 C 131.408 284.595,131.217 284.800,131.003 284.800 C 130.588 284.800,130.273 285.140,130.169 285.698 C 130.129 285.916,129.916 286.129,129.698 286.169 C 129.149 286.271,128.800 286.586,128.800 286.981 C 128.800 287.164,128.536 287.412,128.209 287.535 C 127.836 287.676,127.570 287.950,127.487 288.279 C 127.391 288.664,127.228 288.800,126.865 288.800 C 126.253 288.800,125.632 289.120,125.060 289.730 C 124.817 289.989,124.427 290.200,124.192 290.200 C 123.907 290.200,123.694 290.388,123.551 290.768 C 123.429 291.091,123.098 291.426,122.785 291.544 C 122.442 291.674,122.209 291.928,122.167 292.218 C 122.124 292.516,121.927 292.724,121.619 292.796 C 121.146 292.907,120.936 293.154,120.721 293.850 C 120.661 294.043,120.422 294.200,120.189 294.200 C 119.902 294.200,119.692 294.393,119.539 294.800 C 119.346 295.310,119.206 295.400,118.606 295.403 C 117.416 295.407,116.989 295.605,116.869 296.205 C 116.788 296.612,116.610 296.788,116.197 296.871 C 115.776 296.955,115.603 297.132,115.505 297.579 C 115.404 298.037,115.248 298.190,114.837 298.238 C 114.419 298.286,114.286 298.422,114.237 298.850 C 114.177 299.367,114.114 299.400,113.187 299.400 C 112.159 299.400,111.400 299.867,111.400 300.500 C 111.400 300.665,111.238 300.800,111.040 300.800 C 110.589 300.800,110.200 301.177,110.200 301.614 C 110.200 301.875,109.931 301.979,108.978 302.087 C 107.881 302.211,107.734 302.282,107.546 302.781 C 107.426 303.098,107.093 303.428,106.768 303.551 C 106.410 303.686,106.200 303.910,106.200 304.157 C 106.200 304.506,106.006 304.564,104.413 304.688 C 102.614 304.829,102.305 304.968,102.169 305.698 C 102.129 305.916,101.916 306.129,101.698 306.169 C 101.131 306.274,100.800 306.590,100.800 307.024 C 100.800 307.357,100.634 307.400,99.350 307.403 C 97.454 307.406,97.064 307.528,96.833 308.191 C 96.674 308.647,96.492 308.762,95.776 308.858 C 95.135 308.944,94.780 309.133,94.406 309.589 C 94.127 309.927,93.761 310.203,93.590 310.202 C 93.175 310.199,92.800 310.597,92.800 311.040 C 92.800 311.334,92.633 311.400,91.887 311.400 C 90.801 311.400,90.200 311.678,90.200 312.180 C 90.200 312.495,89.960 312.564,88.453 312.687 C 86.634 312.834,86.200 313.010,86.200 313.600 C 86.200 313.887,85.978 313.968,84.993 314.039 C 83.947 314.115,83.708 314.211,83.204 314.763 C 82.673 315.345,82.518 315.400,81.411 315.400 C 80.241 315.400,79.400 315.807,79.400 316.372 C 79.400 316.467,78.722 316.606,77.893 316.681 C 76.056 316.848,75.815 316.933,75.601 317.497 C 75.467 317.850,75.220 317.966,74.395 318.063 C 73.240 318.200,72.800 318.465,72.800 319.024 C 72.800 319.231,72.665 319.400,72.500 319.400 C 71.867 319.400,71.400 320.159,71.400 321.187 C 71.400 322.114,71.367 322.177,70.851 322.237 C 70.059 322.328,70.050 322.431,70.024 332.425 C 69.997 342.334,70.011 342.511,70.829 342.977 C 71.433 343.320,71.595 343.800,71.107 343.800 C 70.239 343.800,70.016 345.386,70.346 349.207 C 70.503 351.018,70.675 353.192,70.730 354.038 C 70.794 355.021,70.932 355.661,71.115 355.812 C 71.297 355.963,71.404 356.457,71.412 357.174 C 71.431 358.937,71.698 360.164,72.215 360.860 C 72.777 361.616,73.161 363.971,73.330 367.700 C 73.400 369.225,73.533 370.209,73.697 370.400 C 73.852 370.580,74.008 371.577,74.089 372.900 C 74.268 375.831,74.363 376.301,74.890 376.870 C 75.212 377.218,75.374 377.711,75.468 378.627 C 75.540 379.327,75.687 380.755,75.794 381.800 C 75.901 382.845,75.992 384.491,75.995 385.458 C 75.999 386.856,76.078 387.327,76.380 387.758 C 76.589 388.057,76.816 388.826,76.884 389.471 C 77.015 390.705,77.187 391.158,77.728 391.699 C 77.957 391.928,78.111 392.612,78.233 393.930 C 78.409 395.850,78.804 397.200,79.190 397.200 C 79.305 397.200,79.400 397.308,79.400 397.440 C 79.400 397.572,79.555 398.202,79.744 398.840 L 80.089 400.000 84.044 400.000 L 88.000 400.000 88.004 399.550 C 88.007 399.303,88.044 394.936,88.088 389.848 C 88.168 380.501,88.414 376.390,88.931 375.784 C 89.079 375.611,89.200 375.235,89.200 374.950 C 89.200 374.665,89.327 373.908,89.482 373.266 C 89.648 372.585,89.817 370.407,89.890 368.029 C 89.987 364.837,90.078 363.893,90.309 363.663 C 90.913 363.058,91.062 362.453,91.227 359.927 C 91.347 358.088,91.483 357.239,91.698 357.002 C 91.897 356.782,92.000 356.257,92.000 355.457 C 92.000 354.772,92.130 353.997,92.299 353.673 C 92.463 353.358,92.598 352.864,92.599 352.574 C 92.599 352.285,92.735 351.937,92.900 351.800 C 93.065 351.663,93.203 351.270,93.207 350.926 C 93.210 350.581,93.387 349.805,93.600 349.200 C 93.813 348.595,93.990 347.774,93.993 347.374 C 93.997 346.975,94.135 346.537,94.300 346.400 C 94.531 346.208,94.600 345.677,94.600 344.083 C 94.600 342.859,94.714 341.664,94.878 341.157 C 95.032 340.686,95.203 339.920,95.259 339.455 C 95.315 338.991,95.504 338.467,95.680 338.291 C 95.867 338.104,96.004 337.625,96.009 337.136 C 96.014 336.676,96.147 335.940,96.306 335.500 C 96.464 335.060,96.595 334.415,96.597 334.067 C 96.599 333.697,96.787 333.224,97.049 332.930 C 97.296 332.653,97.638 331.858,97.808 331.163 C 98.064 330.122,98.197 329.889,98.567 329.835 C 98.880 329.790,99.051 329.593,99.133 329.185 C 99.197 328.863,99.374 328.600,99.525 328.600 C 100.002 328.600,100.600 327.824,100.600 327.206 C 100.600 326.778,100.768 326.488,101.200 326.168 C 101.564 325.899,101.800 325.544,101.800 325.265 C 101.800 324.929,101.988 324.727,102.500 324.513 C 103.041 324.287,103.200 324.104,103.200 323.710 C 103.200 323.297,103.297 323.200,103.710 323.200 C 104.102 323.200,104.287 323.041,104.507 322.514 C 104.694 322.066,104.950 321.806,105.247 321.764 C 105.540 321.723,105.723 321.540,105.764 321.247 C 105.806 320.950,106.066 320.694,106.514 320.507 C 107.041 320.287,107.200 320.102,107.200 319.710 C 107.200 319.297,107.297 319.200,107.710 319.200 C 108.102 319.200,108.287 319.041,108.507 318.514 C 108.694 318.066,108.950 317.806,109.247 317.764 C 109.543 317.722,109.723 317.540,109.765 317.239 C 109.804 316.966,110.050 316.684,110.365 316.548 C 110.659 316.422,110.930 316.299,110.968 316.275 C 111.005 316.251,111.119 315.860,111.221 315.406 C 111.327 314.932,111.661 314.331,112.003 313.997 C 112.331 313.676,112.600 313.250,112.600 313.051 C 112.600 312.833,112.834 312.599,113.183 312.468 C 113.556 312.327,113.790 312.080,113.833 311.782 C 113.876 311.484,114.073 311.276,114.381 311.204 C 114.854 311.093,115.064 310.846,115.279 310.150 C 115.342 309.948,115.584 309.800,115.853 309.800 C 116.125 309.800,116.523 309.554,116.809 309.208 C 117.152 308.795,117.484 308.614,117.912 308.608 C 118.634 308.598,119.140 308.254,119.235 307.705 C 119.286 307.412,119.530 307.272,120.189 307.159 C 120.796 307.056,121.247 306.818,121.626 306.404 C 121.929 306.072,122.365 305.800,122.594 305.800 C 122.896 305.800,123.043 305.636,123.130 305.200 C 123.231 304.697,123.345 304.600,123.835 304.600 C 124.611 304.600,125.541 304.102,125.699 303.602 C 125.779 303.352,126.002 303.200,126.289 303.200 C 126.805 303.200,127.120 302.898,127.231 302.300 C 127.276 302.052,127.493 301.874,127.802 301.833 C 128.076 301.796,128.542 301.503,128.839 301.183 C 129.170 300.824,129.579 300.600,129.902 300.600 C 130.696 300.600,131.200 300.248,131.200 299.693 C 131.200 299.301,131.302 299.200,131.698 299.200 C 131.996 299.200,132.405 298.966,132.714 298.619 C 133.022 298.274,133.530 297.983,133.966 297.901 C 134.841 297.738,135.200 297.476,135.200 297.001 C 135.200 296.771,135.408 296.608,135.804 296.529 C 136.270 296.436,136.435 296.275,136.525 295.825 C 136.614 295.382,136.781 295.214,137.221 295.126 C 137.606 295.049,137.800 294.888,137.800 294.645 C 137.800 294.178,138.178 293.800,138.645 293.800 C 138.888 293.800,139.049 293.606,139.126 293.221 C 139.214 292.781,139.382 292.614,139.825 292.525 C 140.269 292.436,140.436 292.269,140.525 291.825 C 140.613 291.386,140.781 291.214,141.206 291.129 C 141.593 291.051,141.790 290.876,141.835 290.568 C 141.889 290.198,142.091 290.083,142.996 289.910 C 143.837 289.749,144.147 289.588,144.330 289.219 C 144.461 288.954,144.838 288.624,145.168 288.485 C 145.541 288.328,145.793 288.060,145.834 287.775 C 145.876 287.484,146.076 287.275,146.381 287.204 C 146.854 287.093,147.064 286.846,147.279 286.150 C 147.339 285.958,147.578 285.800,147.811 285.800 C 148.093 285.800,148.307 285.610,148.449 285.232 C 148.571 284.909,148.902 284.574,149.215 284.456 C 149.558 284.326,149.791 284.072,149.833 283.782 C 149.876 283.484,150.073 283.276,150.381 283.204 C 150.854 283.093,151.064 282.846,151.279 282.150 C 151.339 281.957,151.578 281.800,151.811 281.800 C 152.093 281.800,152.307 281.610,152.449 281.232 C 152.573 280.903,152.903 280.573,153.232 280.449 C 153.593 280.313,153.800 280.090,153.800 279.839 C 153.800 279.385,154.162 279.201,155.066 279.197 C 155.833 279.193,156.162 279.003,156.470 278.386 C 156.598 278.128,156.927 277.865,157.202 277.800 C 157.517 277.726,157.724 277.521,157.764 277.238 C 157.805 276.954,158.071 276.692,158.498 276.514 C 158.941 276.329,159.190 276.076,159.234 275.767 C 159.290 275.373,159.446 275.283,160.227 275.193 C 161.209 275.080,161.800 274.734,161.800 274.271 C 161.800 274.116,162.063 273.937,162.383 273.873 C 162.704 273.809,163.216 273.496,163.521 273.178 C 163.856 272.829,164.282 272.600,164.599 272.600 C 165.237 272.600,165.743 272.235,165.834 271.709 C 165.872 271.492,166.116 271.267,166.382 271.204 C 166.854 271.093,167.064 270.845,167.279 270.150 C 167.339 269.957,167.578 269.800,167.811 269.800 C 168.093 269.800,168.307 269.610,168.449 269.232 C 168.571 268.909,168.902 268.574,169.215 268.456 C 169.558 268.326,169.791 268.072,169.833 267.782 C 169.876 267.484,170.073 267.276,170.381 267.204 C 170.854 267.093,171.064 266.846,171.279 266.150 C 171.339 265.958,171.578 265.800,171.811 265.800 C 172.093 265.800,172.307 265.610,172.449 265.232 C 172.571 264.909,172.902 264.574,173.215 264.456 C 173.558 264.326,173.791 264.072,173.833 263.782 C 173.876 263.484,174.073 263.276,174.381 263.204 C 174.854 263.093,175.064 262.846,175.279 262.150 C 175.339 261.957,175.578 261.800,175.811 261.800 C 176.093 261.800,176.307 261.610,176.449 261.232 C 176.571 260.909,176.902 260.574,177.215 260.456 C 177.558 260.326,177.791 260.072,177.833 259.782 C 177.876 259.484,178.073 259.276,178.381 259.204 C 178.854 259.093,179.064 258.846,179.279 258.150 C 179.339 257.958,179.578 257.800,179.811 257.800 C 180.093 257.800,180.307 257.610,180.449 257.232 C 180.573 256.903,180.903 256.573,181.232 256.449 C 181.610 256.307,181.800 256.093,181.800 255.811 C 181.800 255.578,181.958 255.339,182.150 255.279 C 182.845 255.064,183.093 254.854,183.204 254.382 C 183.267 254.116,183.492 253.872,183.709 253.834 C 184.235 253.743,184.600 253.237,184.600 252.599 C 184.600 252.278,184.832 251.852,185.200 251.500 C 185.530 251.184,185.800 250.780,185.800 250.603 C 185.800 250.174,186.194 249.800,186.645 249.800 C 186.888 249.800,187.049 249.605,187.127 249.216 C 187.208 248.811,187.396 248.594,187.743 248.507 C 188.046 248.431,188.327 248.155,188.460 247.803 C 188.585 247.471,188.875 247.174,189.137 247.108 C 189.478 247.023,189.653 246.767,189.818 246.112 C 189.950 245.589,190.276 245.021,190.620 244.714 C 190.967 244.405,191.200 243.996,191.200 243.698 C 191.200 243.297,191.300 243.200,191.710 243.200 C 192.102 243.200,192.287 243.041,192.507 242.514 C 192.694 242.066,192.950 241.806,193.247 241.764 C 193.547 241.722,193.723 241.540,193.767 241.226 C 193.811 240.917,194.040 240.675,194.425 240.529 C 194.796 240.389,195.060 240.119,195.134 239.803 C 195.199 239.526,195.454 239.075,195.701 238.800 C 196.272 238.166,196.600 237.529,196.600 237.057 C 196.600 236.833,196.829 236.601,197.183 236.468 C 197.560 236.326,197.790 236.081,197.833 235.776 C 197.873 235.493,198.060 235.275,198.300 235.231 C 198.925 235.116,199.200 234.799,199.200 234.194 C 199.200 233.851,199.468 233.317,199.900 232.800 C 200.396 232.206,200.600 231.766,200.600 231.287 C 200.600 230.774,200.739 230.509,201.181 230.183 C 201.616 229.861,201.796 229.525,201.898 228.844 C 201.990 228.227,202.221 227.748,202.617 227.352 C 202.986 226.983,203.200 226.562,203.200 226.204 C 203.200 225.850,203.462 225.324,203.900 224.800 C 204.396 224.206,204.600 223.766,204.600 223.287 C 204.600 222.773,204.739 222.509,205.185 222.180 C 205.633 221.848,205.800 221.530,205.897 220.819 C 205.994 220.119,206.170 219.775,206.613 219.423 C 207.049 219.075,207.200 218.786,207.200 218.296 C 207.200 217.837,207.411 217.385,207.900 216.800 C 208.285 216.339,208.600 215.785,208.600 215.568 C 208.600 215.126,209.243 215.214,209.755 215.726 C 210.185 216.157,225.844 216.128,226.276 215.696 C 226.443 215.529,226.990 215.315,227.491 215.221 C 228.088 215.110,228.537 214.879,228.795 214.552 C 229.053 214.224,229.478 214.007,230.034 213.918 C 230.499 213.843,230.997 213.685,231.140 213.567 C 231.347 213.395,231.400 213.550,231.400 214.332 C 231.400 215.231,231.352 215.330,230.817 215.532 C 230.444 215.673,230.210 215.920,230.167 216.218 C 230.124 216.516,229.927 216.724,229.619 216.796 C 229.146 216.907,228.936 217.154,228.721 217.850 C 228.661 218.043,228.422 218.200,228.189 218.200 C 227.907 218.200,227.693 218.390,227.551 218.768 C 227.429 219.091,227.098 219.426,226.785 219.544 C 226.438 219.675,226.209 219.927,226.167 220.224 C 226.127 220.507,225.940 220.725,225.700 220.769 C 225.142 220.872,224.800 221.187,224.800 221.599 C 224.800 221.869,224.564 221.980,223.755 222.087 C 222.592 222.241,222.200 222.474,222.200 223.009 C 222.200 223.247,221.994 223.413,221.591 223.502 C 221.132 223.603,220.955 223.773,220.871 224.197 C 220.788 224.610,220.612 224.788,220.203 224.869 C 219.839 224.942,219.608 225.141,219.531 225.447 C 219.444 225.796,219.185 225.974,218.505 226.157 C 217.725 226.365,217.495 226.556,216.892 227.498 C 216.282 228.453,216.086 228.614,215.399 228.723 C 214.551 228.859,214.286 229.069,214.169 229.698 C 214.129 229.916,213.916 230.129,213.698 230.169 C 213.131 230.274,212.800 230.590,212.800 231.024 C 212.800 231.340,212.646 231.400,211.838 231.400 C 210.791 231.400,210.272 231.678,210.165 232.298 C 210.127 232.516,209.916 232.729,209.698 232.769 C 209.101 232.880,208.800 233.196,208.800 233.711 C 208.800 234.004,208.647 234.222,208.382 234.306 C 207.139 234.700,207.070 238.532,208.296 238.999 C 208.562 239.100,208.790 239.398,208.857 239.735 C 208.935 240.127,209.154 240.370,209.568 240.527 C 209.959 240.674,210.189 240.916,210.233 241.226 C 210.287 241.609,210.473 241.736,211.200 241.888 C 211.695 241.991,212.219 242.194,212.364 242.338 C 212.711 242.681,214.088 242.675,214.376 242.329 C 214.500 242.180,215.196 242.002,215.924 241.934 C 217.317 241.804,217.800 241.568,217.800 241.017 C 217.800 240.812,218.052 240.608,218.450 240.491 C 218.952 240.344,219.114 240.174,219.163 239.750 C 219.213 239.319,219.331 239.200,219.712 239.200 C 219.995 239.200,220.412 238.958,220.714 238.619 C 221.022 238.274,221.530 237.983,221.966 237.901 C 222.853 237.736,223.200 237.475,223.200 236.976 C 223.200 236.740,223.342 236.600,223.581 236.600 C 223.791 236.600,224.339 236.285,224.800 235.900 C 225.317 235.468,225.851 235.200,226.194 235.200 C 226.799 235.200,227.116 234.925,227.231 234.300 C 227.276 234.052,227.493 233.874,227.802 233.833 C 228.076 233.796,228.542 233.503,228.839 233.183 C 229.170 232.824,229.579 232.600,229.902 232.600 C 230.696 232.600,231.200 232.248,231.200 231.693 C 231.200 231.298,231.301 231.200,231.710 231.200 C 232.104 231.200,232.287 231.041,232.513 230.500 C 232.727 229.988,232.929 229.800,233.265 229.800 C 233.544 229.800,233.899 229.564,234.168 229.200 C 234.510 228.738,234.768 228.600,235.292 228.600 C 236.036 228.600,236.600 228.174,236.600 227.611 C 236.600 227.370,236.799 227.210,237.200 227.130 C 237.604 227.049,237.800 226.891,237.800 226.645 C 237.800 226.194,238.174 225.800,238.603 225.800 C 238.780 225.800,239.184 225.530,239.500 225.200 C 239.852 224.832,240.278 224.600,240.599 224.600 C 241.239 224.600,241.743 224.235,241.835 223.703 C 241.885 223.415,242.119 223.271,242.691 223.178 C 243.176 223.099,243.647 222.853,243.920 222.536 C 244.163 222.253,244.661 221.944,245.025 221.850 C 245.483 221.731,245.722 221.531,245.799 221.204 C 245.869 220.908,246.133 220.656,246.502 220.533 C 246.827 220.424,247.253 220.132,247.449 219.883 C 247.645 219.634,248.096 219.372,248.452 219.300 C 249.624 219.065,249.800 218.977,249.800 218.627 C 249.800 218.192,250.180 217.800,250.603 217.800 C 250.780 217.800,251.184 217.530,251.500 217.200 C 251.852 216.832,252.278 216.600,252.599 216.600 C 253.241 216.600,253.743 216.234,253.835 215.700 C 253.878 215.449,254.089 215.276,254.402 215.237 C 254.676 215.202,255.129 214.918,255.409 214.607 C 255.738 214.240,256.233 213.978,256.809 213.865 C 257.557 213.718,257.710 213.608,257.760 213.183 C 257.803 212.811,257.987 212.627,258.453 212.489 C 258.888 212.359,259.124 212.142,259.202 211.800 C 259.299 211.378,259.460 211.283,260.236 211.193 C 261.211 211.080,261.800 210.732,261.800 210.271 C 261.800 210.116,262.075 209.935,262.410 209.868 C 262.880 209.774,263.047 209.614,263.135 209.173 C 263.210 208.800,263.374 208.600,263.606 208.600 C 263.802 208.600,264.339 208.285,264.800 207.900 C 265.381 207.414,265.838 207.200,266.290 207.200 C 266.765 207.200,267.072 207.043,267.421 206.622 C 267.747 206.228,268.188 205.987,268.800 205.866 C 269.557 205.718,269.709 205.609,269.760 205.183 C 269.804 204.809,269.986 204.628,270.460 204.489 C 270.952 204.344,271.115 204.173,271.163 203.750 C 271.212 203.323,271.332 203.200,271.699 203.200 C 271.959 203.200,272.306 203.065,272.471 202.900 C 272.636 202.735,273.082 202.600,273.461 202.600 C 273.841 202.600,274.264 202.464,274.401 202.298 C 274.539 202.132,275.009 201.939,275.446 201.869 C 276.087 201.767,276.279 201.632,276.440 201.171 C 276.567 200.808,276.780 200.600,277.026 200.600 C 277.239 200.600,277.687 200.321,278.020 199.979 C 278.432 199.558,278.888 199.323,279.436 199.250 C 280.117 199.158,280.288 199.037,280.519 198.485 C 280.693 198.069,280.956 197.805,281.238 197.764 C 281.521 197.724,281.726 197.517,281.801 197.201 C 281.899 196.782,282.071 196.680,282.879 196.565 C 284.198 196.376,284.359 196.293,284.434 195.764 C 284.473 195.493,284.664 195.274,284.900 195.231 C 285.470 195.126,285.800 194.811,285.800 194.371 C 285.800 194.106,285.987 193.953,286.410 193.868 C 286.868 193.776,287.048 193.611,287.128 193.210 C 287.199 192.856,287.430 192.601,287.809 192.458 C 288.143 192.332,288.431 192.044,288.501 191.769 C 288.566 191.509,288.873 191.151,289.183 190.973 C 289.566 190.753,289.788 190.427,289.877 189.955 C 289.952 189.553,290.258 189.036,290.603 188.728 C 290.964 188.407,291.200 188.000,291.200 187.698 C 291.200 187.338,291.308 187.200,291.589 187.200 C 292.062 187.200,292.600 186.479,292.600 185.844 C 292.600 185.585,292.859 185.138,293.183 184.839 C 293.503 184.542,293.796 184.076,293.833 183.802 C 293.874 183.493,294.052 183.276,294.300 183.231 C 294.925 183.116,295.200 182.799,295.200 182.194 C 295.200 181.851,295.468 181.317,295.900 180.800 C 296.396 180.206,296.600 179.766,296.600 179.287 C 296.600 178.773,296.739 178.509,297.185 178.180 C 297.633 177.848,297.800 177.530,297.897 176.819 C 297.994 176.119,298.170 175.775,298.613 175.423 C 299.049 175.075,299.200 174.786,299.200 174.296 C 299.200 173.837,299.411 173.385,299.900 172.800 C 300.388 172.216,300.600 171.763,300.600 171.306 C 300.600 170.944,300.735 170.537,300.900 170.400 C 301.133 170.207,301.200 169.668,301.200 168.000 C 301.200 166.332,301.133 165.793,300.900 165.600 C 300.735 165.463,300.600 165.056,300.600 164.694 C 300.600 164.237,300.388 163.784,299.900 163.200 C 299.468 162.683,299.200 162.149,299.200 161.806 C 299.200 161.202,298.925 160.885,298.302 160.769 C 298.084 160.729,297.873 160.516,297.835 160.298 C 297.590 158.887,291.842 158.973,291.368 160.395 C 291.324 160.529,290.840 160.687,290.293 160.746 C 289.168 160.866,288.800 161.083,288.800 161.624 C 288.800 161.948,288.641 162.000,287.650 162.001 C 285.971 162.003,285.030 162.311,284.880 162.909 C 284.771 163.343,284.648 163.400,283.817 163.400 C 282.789 163.400,282.271 163.682,282.165 164.300 C 282.122 164.551,281.911 164.724,281.598 164.763 C 281.324 164.798,280.875 165.076,280.600 165.381 C 280.178 165.849,279.887 165.955,278.727 166.062 C 277.258 166.198,276.800 166.427,276.800 167.024 C 276.800 167.340,276.646 167.400,275.838 167.400 C 274.790 167.400,274.272 167.679,274.165 168.300 C 274.111 168.613,273.893 168.723,273.170 168.807 C 272.215 168.917,271.600 169.265,271.600 169.697 C 271.600 169.850,271.176 169.988,270.486 170.059 C 269.264 170.185,268.800 170.451,268.800 171.024 C 268.800 171.337,268.647 171.400,267.887 171.400 C 266.797 171.400,266.200 171.678,266.200 172.185 C 266.200 172.513,265.965 172.574,264.223 172.698 C 262.346 172.833,262.224 172.869,261.817 173.420 C 261.499 173.850,261.222 174.000,260.744 174.001 C 259.607 174.003,258.596 174.389,258.358 174.912 L 258.136 175.400 254.858 175.400 C 251.473 175.400,250.608 175.571,250.331 176.293 C 250.228 176.559,249.477 176.600,244.728 176.600 L 239.243 176.600 239.124 176.124 C 238.977 175.540,238.520 175.406,236.664 175.403 C 235.349 175.400,235.222 175.364,235.164 174.970 C 235.101 174.549,234.847 174.336,234.150 174.121 C 233.947 174.058,233.800 173.816,233.800 173.544 C 233.800 173.284,233.533 172.819,233.200 172.500 C 232.832 172.148,232.600 171.722,232.600 171.401 C 232.600 170.764,232.235 170.257,231.713 170.167 C 231.470 170.124,231.263 169.857,231.157 169.450 C 231.064 169.092,230.901 168.800,230.794 168.800 C 230.686 168.800,230.600 168.146,230.600 167.324 C 230.600 166.326,230.512 165.776,230.329 165.624 C 230.175 165.496,229.999 164.776,229.924 163.959 C 229.848 163.146,229.662 162.379,229.495 162.194 C 229.266 161.941,229.200 161.266,229.200 159.159 C 229.200 156.994,229.140 156.399,228.900 156.200 C 228.721 156.051,228.600 155.614,228.600 155.116 C 228.600 154.656,228.492 154.172,228.359 154.039 C 228.006 153.686,227.871 148.897,228.203 148.497 C 228.341 148.330,228.500 147.548,228.557 146.759 C 228.645 145.521,228.735 145.253,229.209 144.812 C 229.559 144.485,229.807 143.997,229.895 143.462 C 229.970 143.000,230.159 142.517,230.316 142.387 C 230.528 142.211,230.600 141.629,230.600 140.100 C 230.600 138.607,230.675 137.987,230.874 137.822 C 231.025 137.696,231.199 137.213,231.262 136.747 C 231.339 136.171,231.545 135.755,231.908 135.443 C 232.272 135.130,232.475 134.718,232.549 134.142 C 232.610 133.679,232.781 133.228,232.929 133.140 C 233.082 133.050,233.200 132.646,233.200 132.215 C 233.200 131.793,233.328 131.343,233.484 131.213 C 233.641 131.083,233.832 130.600,233.909 130.138 C 233.988 129.669,234.291 129.025,234.597 128.675 C 235.036 128.174,235.171 127.773,235.282 126.641 C 235.365 125.804,235.539 125.134,235.711 124.991 C 235.870 124.859,236.000 124.410,236.000 123.992 C 236.000 123.575,236.096 123.201,236.213 123.162 C 236.330 123.123,236.479 122.693,236.545 122.205 C 236.626 121.598,236.836 121.159,237.211 120.810 C 237.560 120.485,237.808 119.996,237.895 119.462 C 237.970 119.000,238.159 118.517,238.316 118.387 C 238.472 118.257,238.600 117.841,238.600 117.461 C 238.600 117.082,238.735 116.636,238.900 116.471 C 239.065 116.306,239.201 115.975,239.201 115.736 C 239.202 115.465,239.422 115.175,239.781 114.971 C 240.154 114.759,240.410 114.411,240.502 113.989 C 240.581 113.629,240.898 113.102,241.206 112.818 C 241.514 112.533,241.796 112.076,241.833 111.802 C 241.874 111.493,242.052 111.276,242.300 111.231 C 242.925 111.116,243.200 110.799,243.200 110.194 C 243.200 109.851,243.468 109.317,243.900 108.800 C 244.285 108.339,244.600 107.802,244.600 107.606 C 244.600 107.374,244.800 107.210,245.173 107.135 C 245.614 107.047,245.774 106.880,245.868 106.410 C 245.951 105.997,246.108 105.800,246.355 105.800 C 246.796 105.800,247.200 105.429,247.200 105.025 C 247.200 104.862,247.473 104.498,247.806 104.215 C 248.239 103.848,248.455 103.444,248.560 102.808 C 248.681 102.081,248.800 101.895,249.204 101.800 C 249.518 101.726,249.724 101.520,249.764 101.238 C 249.806 100.952,250.072 100.692,250.514 100.507 C 251.041 100.287,251.200 100.102,251.200 99.710 C 251.200 99.297,251.297 99.200,251.710 99.200 C 252.102 99.200,252.287 99.041,252.507 98.514 C 252.694 98.066,252.950 97.806,253.247 97.764 C 253.540 97.723,253.723 97.540,253.764 97.247 C 253.806 96.950,254.066 96.694,254.514 96.507 C 255.034 96.290,255.200 96.100,255.200 95.723 C 255.200 95.330,255.315 95.213,255.750 95.163 C 256.173 95.115,256.344 94.952,256.489 94.460 C 256.629 93.984,256.809 93.804,257.189 93.760 C 257.569 93.715,257.715 93.569,257.760 93.189 C 257.804 92.809,257.984 92.629,258.460 92.489 C 258.952 92.344,259.115 92.173,259.163 91.750 C 259.213 91.315,259.330 91.200,259.723 91.200 C 260.100 91.200,260.290 91.034,260.507 90.514 C 260.694 90.066,260.950 89.806,261.247 89.764 C 261.540 89.723,261.723 89.540,261.764 89.247 C 261.806 88.950,262.066 88.694,262.514 88.507 C 263.041 88.287,263.200 88.102,263.200 87.710 C 263.200 87.297,263.297 87.200,263.710 87.200 C 264.102 87.200,264.287 87.041,264.507 86.514 C 264.694 86.066,264.950 85.806,265.247 85.764 C 265.540 85.723,265.723 85.540,265.764 85.247 C 265.806 84.950,266.066 84.694,266.514 84.507 C 267.041 84.287,267.200 84.102,267.200 83.710 C 267.200 83.297,267.297 83.200,267.710 83.200 C 268.102 83.200,268.287 83.041,268.507 82.514 C 268.694 82.066,268.950 81.806,269.247 81.764 C 269.540 81.723,269.723 81.540,269.764 81.247 C 269.806 80.950,270.066 80.694,270.514 80.507 C 271.041 80.287,271.200 80.102,271.200 79.710 C 271.200 79.300,271.297 79.200,271.698 79.200 C 271.996 79.200,272.405 78.967,272.713 78.620 C 273.076 78.214,273.496 78.001,274.122 77.907 C 274.899 77.791,275.030 77.699,275.129 77.207 C 275.214 76.781,275.386 76.613,275.825 76.525 C 276.269 76.436,276.436 76.269,276.525 75.825 C 276.614 75.382,276.781 75.214,277.221 75.126 C 277.606 75.049,277.800 74.888,277.800 74.645 C 277.800 74.178,278.178 73.800,278.645 73.800 C 278.891 73.800,279.049 73.604,279.130 73.200 C 279.237 72.667,279.330 72.600,279.975 72.597 C 280.935 72.593,281.685 72.194,281.764 71.645 C 281.809 71.332,281.965 71.200,282.289 71.200 C 282.805 71.200,283.120 70.898,283.231 70.300 C 283.275 70.060,283.493 69.873,283.776 69.833 C 284.073 69.791,284.325 69.562,284.456 69.215 C 284.571 68.908,284.908 68.571,285.215 68.456 C 285.563 68.324,285.791 68.073,285.833 67.774 C 285.890 67.372,286.041 67.284,286.827 67.193 C 287.802 67.081,288.400 66.734,288.400 66.281 C 288.400 66.133,288.693 65.936,289.050 65.844 C 289.501 65.728,289.720 65.541,289.764 65.235 C 289.806 64.952,290.075 64.690,290.514 64.507 C 291.041 64.287,291.200 64.102,291.200 63.710 C 291.200 63.297,291.297 63.200,291.710 63.200 C 292.104 63.200,292.287 63.041,292.513 62.500 C 292.727 61.988,292.929 61.800,293.265 61.800 C 293.544 61.800,293.899 61.564,294.168 61.200 C 294.510 60.738,294.768 60.600,295.292 60.600 C 296.048 60.600,296.600 60.172,296.600 59.586 C 296.600 59.292,296.741 59.200,297.187 59.200 C 298.062 59.200,298.825 58.847,298.945 58.387 C 299.012 58.133,299.278 57.934,299.655 57.859 C 300.077 57.775,300.322 57.568,300.473 57.169 C 300.600 56.832,300.835 56.600,301.051 56.600 C 301.250 56.600,301.687 56.321,302.020 55.979 C 302.432 55.558,302.888 55.323,303.436 55.250 C 304.117 55.158,304.288 55.037,304.519 54.485 C 304.693 54.069,304.956 53.805,305.238 53.764 C 305.517 53.724,305.726 53.518,305.797 53.215 C 305.869 52.907,306.127 52.658,306.502 52.533 C 306.827 52.424,307.256 52.128,307.455 51.875 C 307.658 51.617,308.143 51.356,308.559 51.281 C 309.463 51.119,309.800 50.871,309.800 50.371 C 309.800 50.106,309.987 49.953,310.410 49.868 C 310.880 49.774,311.047 49.614,311.135 49.173 C 311.210 48.800,311.374 48.600,311.606 48.600 C 311.802 48.600,312.339 48.285,312.800 47.900 C 313.381 47.414,313.838 47.200,314.290 47.200 C 314.764 47.200,315.073 47.043,315.421 46.625 C 315.693 46.299,316.203 45.987,316.600 45.902 C 317.453 45.721,317.800 45.462,317.800 45.005 C 317.800 44.714,318.069 44.640,319.503 44.539 C 321.083 44.428,322.400 43.985,322.400 43.565 C 322.400 43.483,322.766 43.306,323.213 43.172 C 323.763 43.008,324.121 42.746,324.318 42.364 C 324.510 41.995,324.768 41.800,325.068 41.800 C 325.319 41.800,325.780 41.534,326.091 41.210 C 326.402 40.885,326.917 40.562,327.235 40.492 C 327.553 40.422,328.008 40.103,328.244 39.783 C 328.481 39.462,328.830 39.200,329.019 39.200 C 329.208 39.200,329.739 38.885,330.200 38.500 C 331.219 37.648,331.308 37.642,331.700 38.400 C 331.871 38.730,332.134 39.000,332.285 39.000 C 332.437 39.000,332.746 39.315,332.973 39.700 C 333.201 40.085,333.529 40.400,333.704 40.400 C 333.878 40.400,334.113 40.663,334.225 40.985 C 334.354 41.357,334.643 41.646,335.015 41.775 C 335.338 41.888,335.819 42.232,336.083 42.540 C 336.769 43.338,340.820 43.416,341.373 42.642 C 341.553 42.390,342.038 41.820,342.450 41.376 C 342.863 40.931,343.200 40.474,343.200 40.360 C 343.200 40.246,343.458 39.859,343.773 39.500 C 344.089 39.141,344.408 38.522,344.482 38.126 C 344.616 37.410,351.868 29.800,352.416 29.800 C 352.669 29.800,355.200 27.293,355.200 27.042 C 355.200 26.618,355.993 26.004,356.765 25.830 C 357.592 25.644,358.610 24.894,359.548 23.780 C 359.816 23.461,360.158 23.200,360.308 23.200 C 360.458 23.200,361.219 22.570,362.000 21.800 C 362.781 21.030,363.592 20.400,363.803 20.400 C 364.014 20.400,364.482 20.142,364.843 19.828 C 365.204 19.513,365.793 19.106,366.150 18.923 C 366.507 18.740,366.800 18.499,366.800 18.388 C 366.800 18.277,367.105 18.006,367.479 17.786 C 367.852 17.566,368.268 17.119,368.403 16.793 C 368.538 16.467,368.769 16.200,368.917 16.200 C 369.284 16.200,369.571 15.609,369.806 14.369 C 369.914 13.796,370.138 13.179,370.302 12.998 C 370.729 12.525,370.717 9.946,370.285 9.588 C 370.112 9.444,369.796 8.983,369.581 8.563 C 369.367 8.144,369.096 7.800,368.979 7.800 C 368.861 7.800,368.391 7.532,367.933 7.203 C 366.651 6.285,364.132 5.963,361.802 6.420 M184.472 43.784 C 184.127 43.995,183.812 44.261,183.772 44.377 C 183.732 44.492,183.160 44.647,182.500 44.720 C 181.187 44.867,180.800 45.067,180.800 45.596 C 180.800 45.891,180.540 45.960,179.097 46.050 C 177.330 46.160,176.800 46.385,176.800 47.024 C 176.800 47.340,176.646 47.400,175.838 47.400 C 174.795 47.400,174.272 47.678,174.166 48.291 C 174.128 48.508,173.884 48.733,173.618 48.796 C 173.146 48.907,172.936 49.155,172.721 49.850 C 172.661 50.043,172.422 50.200,172.189 50.200 C 171.907 50.200,171.693 50.390,171.551 50.768 C 171.429 51.091,171.098 51.426,170.785 51.544 C 170.442 51.674,170.209 51.928,170.167 52.218 C 170.124 52.516,169.927 52.724,169.619 52.796 C 169.146 52.907,168.936 53.154,168.721 53.850 C 168.661 54.042,168.422 54.200,168.189 54.200 C 167.907 54.200,167.693 54.390,167.551 54.768 C 167.427 55.097,167.097 55.427,166.768 55.551 C 166.397 55.691,166.200 55.908,166.200 56.177 C 166.200 56.429,165.976 56.706,165.624 56.887 C 164.966 57.228,164.800 57.554,164.800 58.511 C 164.800 59.056,164.687 59.248,164.224 59.487 C 163.470 59.878,163.400 60.107,163.400 62.199 C 163.400 63.941,163.391 63.972,162.758 64.504 C 162.134 65.030,162.114 65.095,162.034 66.936 C 161.958 68.675,161.915 68.842,161.503 68.999 C 160.525 69.371,160.419 74.623,161.373 75.421 C 161.891 75.854,161.955 76.047,162.042 77.437 C 162.131 78.863,162.184 79.012,162.769 79.505 C 163.395 80.031,163.400 80.051,163.400 81.918 C 163.400 83.878,163.696 84.600,164.500 84.600 C 164.696 84.600,164.800 84.796,164.800 85.162 C 164.800 85.555,164.981 85.858,165.398 86.167 C 165.830 86.486,166.034 86.839,166.129 87.434 C 166.235 88.099,166.370 88.299,166.830 88.473 C 167.215 88.618,167.400 88.828,167.400 89.121 C 167.400 89.366,167.663 89.761,168.003 90.027 C 168.336 90.288,168.712 90.848,168.843 91.277 C 169.091 92.090,169.864 92.600,170.850 92.600 C 171.177 92.600,171.377 92.770,171.532 93.183 C 171.674 93.560,171.919 93.790,172.224 93.833 C 172.507 93.873,172.725 94.060,172.769 94.300 C 172.884 94.925,173.201 95.200,173.806 95.200 C 174.149 95.200,174.683 95.468,175.200 95.900 C 175.661 96.285,176.200 96.600,176.397 96.600 C 176.612 96.600,176.806 96.798,176.880 97.091 C 177.019 97.646,177.951 97.996,179.300 98.001 C 179.948 98.003,180.190 98.117,180.573 98.602 C 180.921 99.043,181.213 99.200,181.684 99.200 C 182.052 99.200,182.611 99.413,183.003 99.702 C 183.809 100.297,184.789 100.597,185.929 100.599 C 186.480 100.600,186.796 100.700,186.872 100.900 C 187.034 101.321,191.434 101.341,191.782 100.922 C 191.924 100.751,192.544 100.614,193.399 100.566 C 194.578 100.499,194.872 100.406,195.355 99.943 C 195.810 99.507,196.213 99.362,197.377 99.216 C 198.658 99.055,199.273 98.794,199.800 98.185 C 199.855 98.121,200.305 97.986,200.800 97.884 C 201.521 97.736,201.713 97.608,201.766 97.238 C 201.833 96.764,201.896 96.722,202.858 96.511 C 203.165 96.444,203.696 96.121,204.038 95.794 C 204.417 95.431,204.873 95.200,205.207 95.200 C 205.567 95.200,205.864 95.032,206.076 94.709 C 206.252 94.439,206.803 93.981,207.299 93.690 C 207.794 93.400,208.200 93.036,208.200 92.881 C 208.200 92.721,208.399 92.600,208.662 92.600 C 209.245 92.600,209.746 92.217,209.835 91.702 C 209.873 91.484,210.084 91.271,210.302 91.231 C 210.925 91.115,211.200 90.798,211.200 90.194 C 211.200 89.851,211.468 89.317,211.900 88.800 C 212.285 88.339,212.600 87.791,212.600 87.581 C 212.600 87.347,212.739 87.200,212.960 87.200 C 213.424 87.200,213.800 86.820,213.800 86.350 C 213.800 86.118,214.025 85.901,214.401 85.770 C 215.037 85.548,215.095 85.408,215.297 83.635 C 215.390 82.812,215.552 82.438,216.009 81.991 C 216.422 81.587,216.600 81.219,216.600 80.768 C 216.600 80.346,216.779 79.935,217.116 79.583 C 217.668 79.007,217.988 77.972,217.995 76.736 C 217.998 76.315,218.135 75.836,218.300 75.671 C 218.714 75.257,218.744 68.772,218.333 68.362 C 218.186 68.215,218.004 67.423,217.927 66.601 C 217.808 65.314,217.706 65.022,217.194 64.494 C 216.739 64.024,216.600 63.696,216.600 63.089 C 216.600 62.024,216.295 61.026,215.811 60.511 C 215.591 60.278,215.339 59.738,215.251 59.312 C 215.096 58.565,214.899 58.352,214.150 58.121 C 213.957 58.061,213.800 57.848,213.800 57.646 C 213.800 57.188,213.425 56.800,212.982 56.800 C 212.788 56.800,212.590 56.587,212.519 56.304 C 212.450 56.031,212.126 55.668,211.797 55.499 C 211.286 55.234,211.200 55.075,211.200 54.395 C 211.200 53.587,210.679 52.800,210.144 52.800 C 210.003 52.800,209.791 52.544,209.673 52.231 C 209.457 51.659,208.835 51.400,207.675 51.400 C 207.344 51.400,207.200 51.286,207.200 51.024 C 207.200 50.590,206.869 50.274,206.302 50.169 C 206.084 50.129,205.871 49.916,205.831 49.698 C 205.726 49.131,205.410 48.800,204.976 48.800 C 204.769 48.800,204.600 48.665,204.600 48.500 C 204.600 47.867,203.841 47.400,202.813 47.400 C 201.886 47.400,201.823 47.367,201.763 46.850 C 201.704 46.339,201.611 46.287,200.450 46.115 C 199.479 45.971,199.200 45.854,199.200 45.589 C 199.200 45.002,198.740 44.825,196.842 44.682 C 195.458 44.577,195.000 44.473,195.000 44.261 C 195.000 43.328,185.897 42.916,184.472 43.784 " stroke="none" fill="#f7c200" fill-rule="evenodd"></path></g></svg>